<svg width="100%" viewBox="0 0 2057 974" xmlns="http://www.w3.org/2000/svg">
    <g fill="#fda703" stroke="none" transform="translate(0 100)">
        <path
            d="M 1092.534 158.364 C 1095.764 169.589 1102.374 179.795 1107.224 190.364 C 1119.104 216.243 1131.874 241.728 1144.274 267.364 C 1179.204 339.56 1214.064 411.844 1248.314 484.364 C 1260.474 510.112 1273.154 535.617 1285.314 561.364 C 1290.014 571.319 1299.154 583.378 1300.684 594.364 C 1301.444 599.785 1296.944 606.478 1294.984 611.364 C 1289.004 626.289 1282.004 640.557 1273.734 654.364 C 1265.284 668.483 1256.704 683.257 1245.444 695.364 C 1237.304 704.123 1228.664 712.851 1218.534 719.31 C 1176.654 746.023 1130.104 739.811 1084.534 729.364 L 1084.534 796.364 C 1137.744 803.235 1191.744 806.988 1241.534 782.094 C 1291.224 757.25 1321.144 708.125 1345.794 660.364 C 1391.424 571.949 1425.474 477.074 1463.954 385.364 C 1484.774 335.759 1505.144 285.968 1525.954 236.364 C 1532.804 220.048 1539.454 203.643 1546.384 187.364 C 1550.314 178.14 1555.824 168.274 1557.534 158.364 L 1503.534 158.364 C 1498.104 158.364 1487.624 156.363 1482.924 159.392 C 1477.284 163.031 1474.824 176.375 1472.254 182.364 C 1463.294 203.198 1455.174 224.401 1446.524 245.364 C 1422.624 303.289 1398.764 361.248 1375.334 419.364 C 1365.024 444.923 1349.894 471.569 1343.534 498.364 L 1341.534 498.364 L 1326.784 467.364 L 1300.794 414.364 L 1219.784 248.364 L 1188.284 184.364 L 1174.894 159.392 L 1152.534 158.364 L 1092.534 158.364 Z">
        </path>
        <path
            d="M 100.534 391.364 C 109.625 398.897 122.97 403.329 133.534 408.611 L 197.534 440.611 L 405.534 544.611 C 436.606 560.147 467.458 576.073 498.534 591.611 C 511.98 598.334 527.713 609.722 542.534 612.364 L 542.534 563.364 L 541.506 543.754 L 518.534 531.117 L 460.534 502.117 L 307.534 425.117 L 240.534 391.364 L 307.534 358.117 L 459.534 282.611 L 518.534 253.117 L 541.506 240.727 L 542.534 221.364 L 542.534 171.364 C 527.073 174.12 510.565 186.102 496.534 193.117 L 398.534 242.117 L 200.534 341.117 C 167.367 357.701 132.553 372.676 100.534 391.364 Z">
        </path>
        <path
            d="M 1600.534 171.364 L 1600.534 220.364 C 1600.534 225.605 1598.654 235.422 1601.564 239.974 C 1605.194 245.662 1617.614 249.159 1623.534 252.117 L 1680.534 280.611 C 1730.924 305.806 1781.134 331.41 1831.534 356.611 C 1853.974 367.829 1877.404 384.412 1901.534 391.364 L 1901.534 393.364 C 1875.624 400.829 1849.674 418.049 1825.534 430.117 L 1679.534 503.117 C 1661.964 511.903 1644.564 521.567 1626.534 529.364 C 1619.964 532.203 1605.494 536.596 1601.564 542.754 C 1598.654 547.306 1600.534 557.122 1600.534 562.364 L 1600.534 612.364 L 1655.534 585.611 L 1763.534 531.611 L 1947.534 439.611 L 2041.534 392.364 C 2031.474 382.202 2012.324 376.511 1999.534 370.117 L 1907.534 324.117 L 1701.534 221.117 L 1635.534 188.117 C 1624.294 182.495 1612.624 174.847 1600.534 171.364 Z">
        </path>
        <path
            d="M 704.534 384.364 C 704.534 374.13 702.051 360.064 705.503 350.364 C 710.589 336.071 722.183 321.459 731.164 309.364 C 737.516 300.809 743.992 292.429 750.959 284.364 C 786.81 242.863 854.576 189.488 905.519 239.403 C 931.848 265.201 939.204 301.065 941.623 336.364 C 946.631 409.413 926.04 491.22 860.534 532.928 C 811.862 563.917 757.912 556.382 704.534 545.364 Z M 705.534 259.364 L 704.534 259.364 L 704.534 158.364 L 628.534 158.364 L 628.534 789.364 L 704.534 789.364 L 704.534 613.364 C 728.157 613.38 751.915 618.29 775.534 619.325 C 816.206 621.106 857.009 614.508 893.534 596.116 C 989.069 548.011 1025.008 434.77 1024.535 335.364 C 1024.298 285.5 1013.766 232.452 979.364 194.364 C 968.209 182.013 954.851 171.287 940.534 162.816 C 875.388 124.27 794.704 158.21 745.534 207.364 C 730.887 222.007 713.84 240.114 705.534 259.364 Z">
        </path>
    </g>
</svg>
